<svg version="1.1" id="Uploaded to svgrepo.com" xmlns="http://www.w3.org/2000/svg" xmlns:xlink="http://www.w3.org/1999/xlink" viewBox="-11.2 -11.2 54.40 54.40" xml:space="preserve" fill="#000000"><g id="SVGRepo_bgCarrier" stroke-width="0" transform="translate(0,0), scale(1)"><path transform="translate(-11.2, -11.2), scale(3.4)" fill="#D2E3C8" d="M9.166.33a2.25 2.25 0 00-2.332 0l-5.25 3.182A2.25 2.25 0 00.5 5.436v5.128a2.25 2.25 0 001.084 1.924l5.25 3.182a2.25 2.25 0 002.332 0l5.25-3.182a2.25 2.25 0 001.084-1.924V5.436a2.25 2.25 0 00-1.084-1.924L9.166.33z" strokewidth="0"></path></g><g id="SVGRepo_tracerCarrier" stroke-linecap="round" stroke-linejoin="round" stroke="#CCCCCC" stroke-width="0.576"></g><g id="SVGRepo_iconCarrier"> <style type="text/css"> .linesandangles_een{fill:#616857;} </style> <path class="linesandangles_een" d="M28,19v6H4v-6h2v4h20v-4H28z M24,19H8v2h16V19z M24,15H8v2h16V15z M24,11H8v2h16V11z M24,7H8v2 h16V7z"></path> </g></svg>
